<?xml version="1.0" encoding="utf-8"?>
<!-- Generator: Adobe Illustrator 24.3.0, SVG Export Plug-In . SVG Version: 6.00 Build 0)  -->
<svg version="1.1" id="Layer_1" xmlns="http://www.w3.org/2000/svg" xmlns:xlink="http://www.w3.org/1999/xlink" x="0px" y="0px"
	 viewBox="0 0 64 64" enable-background="new 0 0 64 64" xml:space="preserve">
<path d="M37,24.2c-1,0-1.8,0.8-1.8,1.8s0.8,1.8,1.8,1.8s1.8-0.8,1.8-1.8S38,24.2,37,24.2z M36.8,26c0-0.1,0.1-0.2,0.2-0.2
	s0.2,0.1,0.2,0.2C37.2,26.3,36.8,26.3,36.8,26z"/>
<path d="M27,24.2c-1,0-1.8,0.8-1.8,1.8s0.8,1.8,1.8,1.8s1.8-0.8,1.8-1.8S28,24.2,27,24.2z M26.8,26c0-0.1,0.1-0.2,0.2-0.2
	s0.2,0.1,0.2,0.2C27.2,26.3,26.8,26.3,26.8,26z"/>
<path d="M57.1,42.6l-3.5,1.2c-0.4,0.1-0.7,0.1-1.1,0l-3.5-1.2c-0.7-0.2-1.5-0.2-2.2,0c-1.6-0.9-3.5-1.4-5.3-1.4L38,38.7v-1.4
	c2.8-1.7,4.9-4.5,5.7-7.8c2.1,2.5,4.5,4.8,7.2,6.8l3.5,2.6c0.2,0.1,0.4,0.2,0.6,0.2c0.2,0,0.5-0.1,0.7-0.3c0.4-0.3,0.4-0.8,0.2-1.2
	C52.7,31.8,51,25.3,51,18.7V11c0-5-4-9-9-9c-2.3,0-4.6,0.9-6.2,2.5C34.6,4.2,33.3,4,32,4c-7.7,0-14,6.3-14,14v4.4
	c-1.2,0.6-2,1.8-2,3.1c0,1.9,1.6,3.5,3.5,3.5h0.7c0.4,2.5,1.6,4.8,3.4,6.6c0.7,0.7,1.5,1.3,2.4,1.8v1.3L22.8,41H21
	c-3.4,0-6.3,2.5-6.9,5.8l-0.8-2.1c1-0.5,1.7-1.5,1.7-2.7v-6c1.7,0,3-1.3,3-3s-1.3-3-3-3v-3c0-0.6-0.4-1-1-1h-1v-8.1
	c2.3-0.5,4-2.5,4-4.9c0-2.8-2.2-5-5-5s-5,2.2-5,5c0,2.4,1.7,4.4,4,4.9V26h-1c-0.6,0-1,0.4-1,1v3H6.4c-1.2,0-2.3,0.5-3,1.4
	c-0.8,0.9-1.1,2-1,3.2L6,61.1C6.1,61.6,6.5,62,7,62h42v0c0.4,0,0.7-0.2,0.9-0.5l3.1-6.2l3.1,6.2c0.2,0.3,0.5,0.6,0.9,0.6
	c0.1,0,0.1,0,0.2,0c0.4-0.1,0.8-0.5,0.8-0.9c0.1-2.2,0.7-6.2,1.8-7.4c1.2-1.4,1.9-4.8,2.2-6.2c0-0.2,0.1-0.4,0.1-0.7v-0.6
	c0-1-0.4-1.9-1.1-2.6C59.9,42.5,58.4,42.1,57.1,42.6z M9,13c0-1.7,1.3-3,3-3s3,1.3,3,3s-1.3,3-3,3S9,14.7,9,13z M44.1,47.4
	c0.3,1.4,1,4.8,2.2,6.2c0.9,1.1,1.5,4.1,1.7,6.4H45v-5h-2v5H33V49l4.4,3c0.5,0.3,1.1,0.2,1.4-0.3c1.6-2.5,2.6-6.7,3-8.6
	c1,0.1,2,0.3,3,0.7c-0.5,0.7-0.8,1.5-0.8,2.3v0.6C44,47,44,47.2,44.1,47.4z M39.9,42.5c-0.3,1.4-1,4.9-2.2,7.2L33.5,47l4.3-5.1
	c0.1-0.2,0.2-0.4,0.2-0.6v0L39.9,42.5z M22,27v-3c5.7,0,10.8-3.2,13.3-8.1c1.4,2.9,3.7,5.3,6.7,6.7v4c0,0.8-0.1,1.6-0.3,2.4H22.2
	C22.1,28.3,22,27.7,22,27z M22,22c0.2-2.3,1-4.5,2.3-6.4C26.2,13.3,29,12,32,12c0.9,0,1.8,0.1,2.7,0.4c-0.1,0.1-0.2,0.3-0.3,0.4
	C32.8,18.3,27.8,22,22,22z M36.4,13c2.8,1.4,4.9,4.1,5.5,7.3C39.2,18.7,37.2,16.1,36.4,13z M44.5,24c0.8,0,1.5,0.7,1.5,1.5
	S45.3,27,44.5,27H44c0-0.1,0-0.2,0-0.4V24H44.5z M42,4c3.9,0,7,3.1,7,7v7.7c0,5.5,1.1,11,3.3,16.1l-0.3-0.2
	c-2.3-1.7-4.5-3.7-6.4-5.9C47,28.3,48,27,48,25.5c0-1.4-0.8-2.6-2-3.1V18c0-5.6-3.3-10.4-8.1-12.7C39.1,4.5,40.5,4,42,4z M32,6
	c6.6,0,12,5.4,12,12v4h0c0,0,0,0,0,0c0-6.6-5.4-12-12-12c-3.6,0-6.9,1.6-9.3,4.4c-1.6,2.3-2.5,4.9-2.7,7.6h0v-4C20,11.4,25.4,6,32,6
	z M19.5,27c-0.8,0-1.5-0.7-1.5-1.5s0.7-1.5,1.5-1.5H20v3H19.5z M22.8,31H41c-1.6,3.5-4.9,5.9-8.9,6c-2.7,0-5.3-1-7.2-2.9
	C24.1,33.2,23.3,32.2,22.8,31z M32,39c0.1,0,0.2,0,0.2,0c1.3,0,2.6-0.3,3.8-0.7v2.5l-4,4.8l-4-4.8v-2.5C29.3,38.8,30.6,39,32,39z
	 M26,41.1L26,41.1c0,0.3,0.1,0.5,0.2,0.7l4.3,5.1l-4.2,2.8c-1.2-2.4-1.9-5.9-2.2-7.3L26,41.1z M11,42v-6.2c0.4-0.1,0.7-0.3,1-0.6
	c0.3,0.3,0.6,0.5,1,0.6V42c0,0.6-0.4,1-1,1S11,42.6,11,42z M16,33c0,0.6-0.4,1-1,1h-1c-0.6,0-1-0.4-1-1s0.4-1,1-1h1
	C15.6,32,16,32.4,16,33z M13,28v2.2c-0.4,0.1-0.7,0.3-1,0.6c-0.3-0.3-0.6-0.5-1-0.6V28H13z M4.9,32.7C5.3,32.2,5.8,32,6.4,32H10
	c0.6,0,1,0.4,1,1s-0.4,1-1,1H7v2h2v6c0,0.4,0.1,0.7,0.2,1H5.6l-1.2-8.7C4.4,33.7,4.5,33.1,4.9,32.7z M5.9,45h5.4l2.7,7.2V54h-2v2h3
	c0.6,0,1-0.4,1-1v-7c0-2.8,2.2-5,5-5h1.2c0.3,1.8,1.3,6.2,3,8.7c0.2,0.3,0.5,0.4,0.8,0.4c0.2,0,0.4-0.1,0.6-0.2l4.4-3v11H7.9L5.9,45
	z M60,46.8c0,0.1,0,0.2,0,0.3c-0.4,2.1-1.1,4.5-1.7,5.3c-1,1.1-1.5,3.3-1.9,5.2l-1.6-3.2c-0.3-0.7-1-1.1-1.8-1.1s-1.4,0.4-1.8,1.1
	l-1.6,3.2c-0.3-1.9-0.9-4-1.8-5.2c-0.7-0.8-1.4-3.2-1.7-5.3c0-0.1,0-0.2,0-0.3v-0.6c0-0.5,0.2-0.9,0.5-1.2c0.5-0.5,1.2-0.6,1.8-0.4
	l3.5,1.2c0.2,0.1,0.4,0.1,0.6,0.1l3,2l1.1-1.7l-1.3-0.9l2.5-0.8c0.6-0.2,1.3,0,1.8,0.4c0.3,0.3,0.5,0.8,0.5,1.2V46.8z"/>
</svg>
