<?xml version="1.0" encoding="UTF-8" standalone="no"?> <svg xmlns="http://www.w3.org/2000/svg" viewBox="0 0 512 512"><g id="outline"><path d="M94.256,354.931A73.7,73.7,0,0,1,78.8,318.754l-1.38-10.265a8,8,0,1,0-15.857,2.131l1.379,10.266a89.711,89.711,0,0,0,18.817,44.031,8,8,0,0,0,12.5-9.986Z"/><path d="M108.379,372.609a8,8,0,0,0-12.5,9.987l7.062,8.84a8,8,0,1,0,12.5-9.987Z"/><path d="M418.773,160a76.759,76.759,0,0,0-66.78,38.44A76.759,76.759,0,0,0,285.212,160c-.777,0-1.546.036-2.318.059a78.978,78.978,0,0,0-91.824,16.322,140.5,140.5,0,0,1,67.355-83.5l10.745-5.862a8,8,0,1,0-7.662-14.046l-10.745,5.861a156.5,156.5,0,0,0-78.684,108.091A78.888,78.888,0,0,0,148.4,164.1a8,8,0,0,0-12.071,5.1A44.207,44.207,0,0,1,93.353,204a46.853,46.853,0,0,1-6.964-.63,8,8,0,0,0-9.177,7.348A40.16,40.16,0,0,1,37.352,248a40.929,40.929,0,0,1-10.387-1.422A8,8,0,0,0,17,253.483,184.985,184.985,0,0,0,44.428,371.148l31.928,50.576A56.249,56.249,0,0,0,124.072,448h1.2a56.8,56.8,0,0,0,39.9-16.5,17.1,17.1,0,0,1,12.172-5.037h.036a16.939,16.939,0,0,1,12.1,5.063,56.544,56.544,0,0,0,88.8-11.684l5.823-10.093c.1.673.211,1.343.3,2.019l1.641,13.125a26.383,26.383,0,0,0,52.213,1.009l12.336-56.279c.036-.164.067-.33.093-.5a1.325,1.325,0,0,1,2.619,0c.025.166.056.332.092.5L365.73,425.9a26.384,26.384,0,0,0,52.214-1.008l1.64-13.125a94.6,94.6,0,0,1,26.845-54.887,168.113,168.113,0,0,0,49.564-119.658A77.307,77.307,0,0,0,418.773,160ZM264.441,411.811a40.543,40.543,0,0,1-63.649,8.394,33.153,33.153,0,0,0-46.936-.023A40.694,40.694,0,0,1,125.272,432h-1.2a40.32,40.32,0,0,1-34.2-18.83L57.955,362.6a168.952,168.952,0,0,1-25.724-98.858c1.719.169,3.422.252,5.121.252A56.231,56.231,0,0,0,92,219.978q.672.019,1.358.02a60.343,60.343,0,0,0,54.957-36.077,61.763,61.763,0,0,1,16.113,22.324,13.881,13.881,0,0,0,13.663,8.382,13.707,13.707,0,0,0,12.153-8.468A62.993,62.993,0,0,1,248.153,168c.918,0,1.834.027,2.75.068a77.3,77.3,0,0,0-42.91,69.152,168.113,168.113,0,0,0,49.564,119.658,94.418,94.418,0,0,1,20.609,31.144Zm170.674-66.249a110.665,110.665,0,0,0-31.407,64.216l-1.64,13.125a10.384,10.384,0,0,1-20.567.29c-.025-.166-.056-.332-.092-.5L369.07,366.4a17.325,17.325,0,0,0-34.154,0L322.577,422.7c-.036.164-.067.33-.093.5a10.383,10.383,0,0,1-20.566-.29l-1.641-13.125a110.659,110.659,0,0,0-31.407-64.216,152.218,152.218,0,0,1-44.877-108.344A61.219,61.219,0,0,1,339.969,209.84a13.443,13.443,0,0,0,24.047,0,61.22,61.22,0,0,1,115.977,27.378A152.215,152.215,0,0,1,435.115,345.562Z"/><path d="M364.415,261.065a27.912,27.912,0,0,1-24.845,0,8,8,0,1,0-7.155,14.311,43.978,43.978,0,0,0,39.155,0,8,8,0,1,0-7.155-14.311Z"/><path d="M319.993,224a8,8,0,0,0-8,8v8a8,8,0,0,0,16,0v-8A8,8,0,0,0,319.993,224Z"/><path d="M383.993,224a8,8,0,0,0-8,8v8a8,8,0,0,0,16,0v-8A8,8,0,0,0,383.993,224Z"/><path d="M263.141,268.438a68.127,68.127,0,0,1-6.622-30.433l.107-6.11a8,8,0,1,0-16-.282l-.108,6.111a84.225,84.225,0,0,0,8.185,37.616,8,8,0,0,0,14.435-6.9Z"/><path d="M275.325,289.045a8,8,0,0,0-13.341,8.834l7.139,10.78a8,8,0,0,0,13.34-8.834Z"/><rect x="47.992" y="127.998" width="16" height="16"/><rect x="47.992" y="159.998" width="16" height="16"/><rect x="63.992" y="143.998" width="16" height="16"/><rect x="31.992" y="143.998" width="16" height="16"/><rect x="375.993" y="95.998" width="16" height="16"/><rect x="375.993" y="127.998" width="16" height="16"/><rect x="391.993" y="111.998" width="16" height="16"/><rect x="359.993" y="111.998" width="16" height="16"/><rect x="439.993" y="39.998" width="16" height="16"/><rect x="439.993" y="87.998" width="16" height="16"/><rect x="463.993" y="63.998" width="16" height="16"/><rect x="415.993" y="63.998" width="16" height="16"/></g></svg>