<?xml version="1.0" encoding="UTF-8" standalone="no"?> <svg xmlns="http://www.w3.org/2000/svg" viewBox="0 0 512 512"><title>Dental_tools</title><g id="Dental_tools"><path d="M410,275.89l-5.31-78.57-8.51-126-.1-1a9.56,9.56,0,0,0-2.64-5.74L347.57,17.1A6.85,6.85,0,0,0,337.22,26l37.57,48.7a.75.75,0,0,1,.17.49l-1.54,22.71L370,71.5l-.16-1a9.63,9.63,0,0,0-3-5.57L318.05,20.4A6.85,6.85,0,0,0,308.28,30l40.53,46.27a.75.75,0,0,1,.2.48L348,277.81c0,5.67.22,11.4.74,17l17.09,184.88a19,19,0,0,0,19,17.28l.87,0H386a19,19,0,0,0,18.79-18.49l2.92-97.83h0l2.61-87.73h0C410.51,287.27,410.4,281.53,410,275.89ZM398.2,249.32h-25l.49-7.33h24Zm1.15,17,0,.33H372l.5-7.34h26.35Zm-.82,87H372.86l-.22-7.33h26.11Zm.52-17.33H372.34l-.22-7.33h27.15l-.09,2.9Zm-.29-17.33H371.82l-.22-7.34h28.19l-.22,7.34Zm-.56-17.34H371.31l-.22-7.33H400.3l-.21,7.33ZM400.36,284H371c0-.61,0-1.23.05-1.84,0-.38,0-.75,0-1.13s0-.73.05-1.09,0-1,.08-1.44.07-1.22.11-1.83h28.7c.06.88.11,1.76.15,2.65l.09,2,0,.85C400.34,282.77,400.35,283.38,400.36,284Zm-9.44-52H374.37l.08-1.16.42-6.17h21.66L397,232Zm-2.26-17.33H375.54l.5-7.34h19.32l.5,7.34Zm-15.5,148.66h25.07l-.21,7.34H373.38Zm9.55-294.69-2.95-3.82,6.4,6.62.06.65,8.47,125.24h-18L380,148.48l4.92-72.6A10.82,10.82,0,0,0,382.71,68.63Zm-24.06,225.3c-.49-5.31-.72-10.72-.69-16.07L359,76.73a10.75,10.75,0,0,0-2.67-7.09L353.16,66l6.8,6.21.1.64,9.92,76-3.29,48.5-.42,6.22-4.9,72.34c-.33,4.91-.46,9.9-.37,14.83,0,.74,0,1.48.05,2.22l1.18,39.75ZM385.7,487h-.17a9.07,9.07,0,0,1-8.94-8.79l-2.92-97.54h24.05l-2.91,97.52A9.08,9.08,0,0,1,385.7,487Z"/><path d="M193.58,61a46,46,0,1,0-51,45.72V205H137a5,5,0,0,0-4.93,4.15L126.65,241a4.87,4.87,0,0,0-.06.76s0,0,0,.08v234a21,21,0,0,0,42,0v-234s0,0,0-.08a4.87,4.87,0,0,0-.06-.76l-5.44-31.9a5,5,0,0,0-4.93-4.15h-5.56V106.71A46.06,46.06,0,0,0,193.58,61Zm-35,399h-22V246.85h22Zm0,15.86a11,11,0,0,1-22,0V470h22Zm-.92-239H137.51L141.24,215h12.68ZM111.58,61a36,36,0,1,1,36,36A36,36,0,0,1,111.58,61Z"/><path d="M291.64,61a46,46,0,0,0-75.41-35.37,5,5,0,1,0,6.4,7.68,36,36,0,1,1,23,63.69,5,5,0,0,0-5,5V205h-5.56a5,5,0,0,0-4.93,4.15L224.71,241a4.87,4.87,0,0,0-.06.76s0,0,0,.08v234a21,21,0,0,0,42,0v-234s0,0,0-.08a4.87,4.87,0,0,0-.06-.76l-5.44-31.9A5,5,0,0,0,256.2,205h-5.56V106.71A46.06,46.06,0,0,0,291.64,61Zm-35,399h-22V246.85h22Zm0,15.86a11,11,0,0,1-22,0V470h22Zm-.92-239H235.56L239.3,215H252Z"/></g></svg>