<?xml version="1.0" encoding="UTF-8" standalone="no"?> <svg id="Dentist" xmlns="http://www.w3.org/2000/svg" viewBox="0 0 512 512"><title>Dentist</title><path d="M423.24,462h0V445.69c0-1.05,0-2.1,0-3.15s-.05-1.82-.09-2.72c0-.69-.06-1.38-.11-2.07,0-.43,0-.86-.08-1.28-.05-.81-.11-1.61-.18-2.42s-.15-1.64-.23-2.46a134.64,134.64,0,0,0-25-65.54l-1.37-1.86c-.5-.66-1-1.31-1.5-2s-1.1-1.4-1.66-2.09l-.15-.19-.32-.39c-.48-.59-1-1.17-1.47-1.75s-1.12-1.33-1.7-2c-.32-.37-.64-.73-1-1.09-1-1.14-2.06-2.26-3.13-3.37l-.36-.38c-.54-.56-1.09-1.11-1.65-1.66s-1.35-1.34-2-2l-1.71-1.61c-.59-.54-1.18-1.08-1.78-1.61s-1.05-.92-1.57-1.38A135.37,135.37,0,0,0,296.56,310V276a106.56,106.56,0,0,0,54.23-50.51c.37-.73.73-1.47,1.08-2.21.73-1.51,1.41-3.05,2.05-4.6.32-.78.64-1.56.94-2.34s.6-1.57.89-2.36c.21-.59.42-1.18.62-1.78.15-.41.29-.83.42-1.25s.32-1,.47-1.47.26-.83.38-1.25c.44-1.46.84-2.94,1.21-4.42.12-.45.23-.9.33-1.36s.23-1,.33-1.44c.06-.24.11-.48.16-.73.12-.57.24-1.13.35-1.7a104.13,104.13,0,0,0,1.65-11.75c0-.26.05-.53.07-.79,11.51-2.37,20.23-13.34,20.23-26.46S373.4,135.66,362,133.16V121.41h10a5,5,0,0,0,5-5.47l-7.29-77.41A25.87,25.87,0,0,0,343.91,15H168.09a25.87,25.87,0,0,0-25.85,23.53L135,115.94a5,5,0,0,0,5,5.47h10v11.75C138.6,135.66,130,146.55,130,159.57s8.72,24.09,20.23,26.46c0,.26,0,.53.07.79A104.13,104.13,0,0,0,152,198.57c.11.57.23,1.13.35,1.7,0,.25.1.49.16.73q.15.72.33,1.44c.1.46.21.91.33,1.36.37,1.48.77,3,1.21,4.42.12.42.25.83.38,1.25s.31,1,.47,1.47.27.84.42,1.25c.2.6.41,1.19.62,1.78.29.79.59,1.58.89,2.36s.62,1.56.94,2.34c.64,1.55,1.32,3.09,2,4.6.35.74.71,1.48,1.08,2.21A106.56,106.56,0,0,0,215.44,276v34a135.37,135.37,0,0,0-79.56,32.79c-.52.46-1,.91-1.57,1.38s-1.19,1.07-1.78,1.61l-1.71,1.61c-.69.65-1.37,1.32-2,2s-1.11,1.1-1.65,1.66l-.36.38c-1.07,1.11-2.12,2.23-3.13,3.37-.34.36-.66.72-1,1.09-.58.65-1.15,1.31-1.7,2s-1,1.16-1.47,1.75l-.32.39-.15.19c-.56.69-1.12,1.39-1.66,2.09s-1,1.3-1.5,2l-1.37,1.86a134.64,134.64,0,0,0-25,65.54c-.08.82-.16,1.64-.23,2.46s-.13,1.61-.18,2.42c0,.42-.07.85-.08,1.28,0,.69-.08,1.38-.11,2.07,0,.9-.07,1.81-.09,2.72s0,2.1,0,3.15V462h0v30a5,5,0,0,0,5,5H418.24a5,5,0,0,0,5-5V462ZM377,357.28c.36.35.7.7,1,1.06s.74.76,1.08,1.15.69.72,1,1.09q1.69,1.85,3.31,3.75l1.44,1.73.16.2.13.16c.49.59,1,1.18,1.42,1.78.06.09.13.17.2.26q1.44,1.86,2.81,3.76h0l1.23,1.74a126.5,126.5,0,0,1,21.91,61c.07.79.13,1.57.18,2.36l.06.92c0,.61.07,1.21.09,1.82,0,.88.07,1.76.09,2.65s0,2,0,2.95V457H362V410.27a5,5,0,0,0-10,0V487H261V365.56c12.52-4.6,50.87-20.27,58.39-41.77a126.3,126.3,0,0,1,49.46,25.92c.61.51,1.22,1,1.82,1.56q.52.44,1,.9l1.45,1.33c.3.27.6.55.9.85s.86.81,1.29,1.23C375.9,356.15,376.47,356.71,377,357.28Zm-5-197.71c0,7.36-4.15,13.64-9.93,16v-32C367.82,145.92,372,152.21,372,159.57Zm-231.94,0c0-7.36,4.15-13.65,9.93-16v32C144.18,173.21,140,166.93,140,159.57Zm20.5,28.84c-.07-.52-.12-1.06-.16-1.58l0-.31H298a5,5,0,0,0,0-10H160V121.41h16.37a5,5,0,0,0,0-10H145.42l6.78-71.94A15.9,15.9,0,0,1,168.09,25H343.91A15.9,15.9,0,0,1,359.8,39.47l6.78,71.94H198.68a5,5,0,0,0,0,10H352v55.11H327a5,5,0,0,0,0,10h24.66l0,.31c0,.52-.09,1.06-.16,1.58-.08.8-.18,1.59-.29,2.38q-.57,4.26-1.51,8.42c-.16.69-.32,1.38-.49,2.07s-.34,1.38-.54,2.06-.4,1.43-.62,2.14c-.15.53-.31,1.05-.49,1.57,0,.18-.11.36-.17.54-.15.5-.31,1-.49,1.48-.1.29-.2.58-.31.87-.16.5-.34,1-.53,1.48-.5,1.33-1,2.64-1.57,3.94-.26.66-.55,1.3-.85,1.95A97.37,97.37,0,0,1,296.56,265a90,90,0,0,1-10,4c-1.8.61-3.61,1.17-5.45,1.67q-3.32.9-6.7,1.56c-2.25.44-4.53.8-6.82,1.08-.65.08-1.32.16-2,.21l-.74.08-1.53.13c-.8.06-1.6.11-2.41.15l-.79,0c-.35,0-.71,0-1.06,0l-1.38,0-1.71,0-1.71,0-1.38,0c-.35,0-.71,0-1.06,0l-.79,0c-.81,0-1.61-.09-2.41-.15l-1.53-.13-.74-.08c-.65-.05-1.32-.13-2-.21-2.29-.28-4.57-.64-6.82-1.08s-4.49-1-6.7-1.56c-1.84-.5-3.65-1.06-5.45-1.67a90,90,0,0,1-10-4,97.37,97.37,0,0,1-47.05-47.72c-.3-.65-.59-1.29-.85-1.95-.55-1.3-1.07-2.61-1.57-3.94-.19-.49-.37-1-.53-1.48-.11-.29-.21-.58-.31-.87-.18-.49-.34-1-.49-1.48-.06-.18-.12-.36-.17-.54-.18-.52-.34-1-.49-1.57-.22-.71-.42-1.42-.62-2.14s-.38-1.37-.54-2.06-.33-1.38-.49-2.07q-.95-4.16-1.51-8.42C160.71,190,160.61,189.21,160.53,188.41ZM220.61,319.7a5,5,0,0,0,4.83-5V279.57l.39.11,2.43.69q2.43.67,4.9,1.21c1.07.23,2.15.45,3.23.65.59.12,1.18.22,1.77.32.84.15,1.67.28,2.51.4,1.54.23,3.08.42,4.64.57.56.06,1.11.11,1.67.15,1.18.11,2.37.19,3.57.25l.87,0c1.52.07,3.05.1,4.58.1s3.06,0,4.58-.1l.87,0c1.2-.06,2.39-.14,3.57-.25.56,0,1.11-.09,1.67-.15,1.56-.15,3.1-.34,4.64-.57.84-.12,1.67-.25,2.51-.4.59-.1,1.18-.2,1.77-.32,1.08-.2,2.16-.42,3.23-.65q2.48-.54,4.9-1.21l2.43-.69.39-.11V314.7a5,5,0,0,0,4.83,5,127,127,0,0,1,18.14,1.9c-6,14-34.33,28.36-53.51,35.14a207.2,207.2,0,0,1-26.8-12c-14.38-7.86-23.65-15.9-26.75-23.11A127,127,0,0,1,220.61,319.7Zm-98.25,52.53h0q1.36-1.91,2.81-3.76c.07-.09.14-.17.2-.26.46-.6.93-1.19,1.42-1.78l.13-.16.16-.2,1.44-1.73q1.62-1.9,3.31-3.75c.33-.37.66-.73,1-1.09s.71-.77,1.08-1.15.68-.71,1-1.06c.55-.57,1.12-1.13,1.69-1.7.43-.42.86-.84,1.29-1.23s.6-.58.9-.85l1.45-1.33q.49-.46,1-.9c.6-.53,1.21-1,1.82-1.56a126.3,126.3,0,0,1,49.46-25.92c7.52,21.5,45.87,37.17,58.39,41.77V487H160V410.27a5,5,0,1,0-10,0V457H98.76V445.69c0-1,0-2,0-2.95s0-1.77.09-2.65c0-.61,0-1.21.1-1.82,0-.31,0-.61.05-.92,0-.79.11-1.57.18-2.36a126.5,126.5,0,0,1,21.91-61ZM98.76,467H150v20H98.76ZM362,487V467h51.2v20Z"/><path d="M331.59,435.63h-50a5,5,0,0,0,0,10h50a5,5,0,1,0,0-10Z"/><path d="M205.4,211.33H306.6a5,5,0,0,0,0-10H205.4a5,5,0,0,0,0,10Z"/><path d="M295.69,219.92H216.31a5,5,0,0,0,0,10h79.38a5,5,0,0,0,0-10Z"/><path d="M277.23,238.51H234.77a5,5,0,1,0,0,10h42.46a5,5,0,0,0,0-10Z"/><path d="M205.4,142.44A8.56,8.56,0,1,0,214,151,8.57,8.57,0,0,0,205.4,142.44Z"/><path d="M315.17,151a8.57,8.57,0,1,0-8.56,8.56A8.56,8.56,0,0,0,315.17,151Z"/></svg>